<mxfile host="app.diagrams.net" agent="Mozilla/5.0 (Windows NT 10.0; Win64; x64) AppleWebKit/537.36 (KHTML, like Gecko) Chrome/128.0.0.0 Safari/537.36" version="24.7.12">
  <diagram name="페이지-1" id="DNnQ39sZenCjHOoaF_8W">
    <mxGraphModel dx="1434" dy="780" grid="1" gridSize="10" guides="1" tooltips="1" connect="1" arrows="1" fold="1" page="1" pageScale="1" pageWidth="827" pageHeight="1169" math="0" shadow="0">
      <root>
        <mxCell id="0" />
        <mxCell id="1" parent="0" />
        <mxCell id="MHYFWgI7yLFC2azn4eVU-2" value="A가 B에게 전화를 건다." style="strokeWidth=2;html=1;shape=mxgraph.flowchart.start_1;whiteSpace=wrap;" vertex="1" parent="1">
          <mxGeometry x="265" y="30" width="290" height="160" as="geometry" />
        </mxCell>
        <mxCell id="MHYFWgI7yLFC2azn4eVU-3" value="" style="endArrow=classic;html=1;rounded=0;exitX=0.5;exitY=1;exitDx=0;exitDy=0;exitPerimeter=0;" edge="1" parent="1" source="MHYFWgI7yLFC2azn4eVU-2">
          <mxGeometry width="50" height="50" relative="1" as="geometry">
            <mxPoint x="390" y="430" as="sourcePoint" />
            <mxPoint x="410" y="270" as="targetPoint" />
          </mxGeometry>
        </mxCell>
        <mxCell id="MHYFWgI7yLFC2azn4eVU-4" value="A는 B의 상사이다." style="shape=hexagon;perimeter=hexagonPerimeter2;whiteSpace=wrap;html=1;fixedSize=1;" vertex="1" parent="1">
          <mxGeometry x="275" y="270" width="270" height="190" as="geometry" />
        </mxCell>
        <mxCell id="MHYFWgI7yLFC2azn4eVU-5" value="" style="endArrow=classic;html=1;rounded=0;exitX=0.5;exitY=1;exitDx=0;exitDy=0;entryX=0.5;entryY=0;entryDx=0;entryDy=0;" edge="1" parent="1" source="MHYFWgI7yLFC2azn4eVU-4">
          <mxGeometry width="50" height="50" relative="1" as="geometry">
            <mxPoint x="390" y="530" as="sourcePoint" />
            <mxPoint x="410" y="610" as="targetPoint" />
          </mxGeometry>
        </mxCell>
        <mxCell id="MHYFWgI7yLFC2azn4eVU-7" value="yes" style="text;html=1;align=center;verticalAlign=middle;resizable=0;points=[];autosize=1;strokeColor=none;fillColor=none;" vertex="1" parent="1">
          <mxGeometry x="414" y="920" width="40" height="30" as="geometry" />
        </mxCell>
        <mxCell id="MHYFWgI7yLFC2azn4eVU-8" value="" style="endArrow=classic;html=1;rounded=0;entryX=0;entryY=0.37;entryDx=0;entryDy=0;entryPerimeter=0;" edge="1" parent="1" target="MHYFWgI7yLFC2azn4eVU-12">
          <mxGeometry width="50" height="50" relative="1" as="geometry">
            <mxPoint x="410" y="860" as="sourcePoint" />
            <mxPoint x="574" y="860" as="targetPoint" />
          </mxGeometry>
        </mxCell>
        <mxCell id="MHYFWgI7yLFC2azn4eVU-9" value="B가 전화를 받는가?" style="rhombus;whiteSpace=wrap;html=1;" vertex="1" parent="1">
          <mxGeometry x="265" y="610" width="290" height="210" as="geometry" />
        </mxCell>
        <mxCell id="MHYFWgI7yLFC2azn4eVU-10" value="" style="endArrow=classic;html=1;rounded=0;exitX=0.5;exitY=1;exitDx=0;exitDy=0;" edge="1" parent="1" source="MHYFWgI7yLFC2azn4eVU-9">
          <mxGeometry width="50" height="50" relative="1" as="geometry">
            <mxPoint x="390" y="730" as="sourcePoint" />
            <mxPoint x="410" y="950" as="targetPoint" />
          </mxGeometry>
        </mxCell>
        <mxCell id="MHYFWgI7yLFC2azn4eVU-12" value="B가 전화를 받을때까지 다시한다." style="rounded=0;whiteSpace=wrap;html=1;" vertex="1" parent="1">
          <mxGeometry x="580" y="820" width="200" height="100" as="geometry" />
        </mxCell>
        <mxCell id="MHYFWgI7yLFC2azn4eVU-13" value="no" style="text;html=1;align=center;verticalAlign=middle;resizable=0;points=[];autosize=1;strokeColor=none;fillColor=none;" vertex="1" parent="1">
          <mxGeometry x="530" y="830" width="40" height="30" as="geometry" />
        </mxCell>
        <mxCell id="MHYFWgI7yLFC2azn4eVU-17" value="" style="endArrow=none;html=1;rounded=0;exitX=0.5;exitY=0;exitDx=0;exitDy=0;" edge="1" parent="1" source="MHYFWgI7yLFC2azn4eVU-12">
          <mxGeometry width="50" height="50" relative="1" as="geometry">
            <mxPoint x="620" y="790" as="sourcePoint" />
            <mxPoint x="680" y="520" as="targetPoint" />
          </mxGeometry>
        </mxCell>
        <mxCell id="MHYFWgI7yLFC2azn4eVU-18" value="" style="endArrow=classic;html=1;rounded=0;" edge="1" parent="1">
          <mxGeometry width="50" height="50" relative="1" as="geometry">
            <mxPoint x="680" y="520" as="sourcePoint" />
            <mxPoint x="410" y="520" as="targetPoint" />
          </mxGeometry>
        </mxCell>
        <mxCell id="MHYFWgI7yLFC2azn4eVU-20" value="주어진 업무를 A와 B가 같이 상의한다" style="rounded=0;whiteSpace=wrap;html=1;" vertex="1" parent="1">
          <mxGeometry x="285" y="950" width="250" height="130" as="geometry" />
        </mxCell>
        <mxCell id="MHYFWgI7yLFC2azn4eVU-24" value="" style="endArrow=classic;html=1;rounded=0;exitX=0.5;exitY=1;exitDx=0;exitDy=0;entryX=0.5;entryY=0;entryDx=0;entryDy=0;" edge="1" parent="1" source="MHYFWgI7yLFC2azn4eVU-20">
          <mxGeometry width="50" height="50" relative="1" as="geometry">
            <mxPoint x="380" y="1030" as="sourcePoint" />
            <mxPoint x="412.5" y="1160" as="targetPoint" />
          </mxGeometry>
        </mxCell>
        <mxCell id="MHYFWgI7yLFC2azn4eVU-25" value="yes" style="text;html=1;align=center;verticalAlign=middle;resizable=0;points=[];autosize=1;strokeColor=none;fillColor=none;" vertex="1" parent="1">
          <mxGeometry x="420" y="1400" width="40" height="30" as="geometry" />
        </mxCell>
        <mxCell id="MHYFWgI7yLFC2azn4eVU-26" value="A와 B가 다시 상의한다" style="rounded=0;whiteSpace=wrap;html=1;" vertex="1" parent="1">
          <mxGeometry x="30" y="1340" width="200" height="120" as="geometry" />
        </mxCell>
        <mxCell id="MHYFWgI7yLFC2azn4eVU-28" value="no" style="text;html=1;align=center;verticalAlign=middle;resizable=0;points=[];autosize=1;strokeColor=none;fillColor=none;" vertex="1" parent="1">
          <mxGeometry x="230" y="1360" width="40" height="30" as="geometry" />
        </mxCell>
        <mxCell id="MHYFWgI7yLFC2azn4eVU-29" value="" style="endArrow=none;html=1;rounded=0;exitX=0.5;exitY=0;exitDx=0;exitDy=0;" edge="1" parent="1" source="MHYFWgI7yLFC2azn4eVU-26">
          <mxGeometry width="50" height="50" relative="1" as="geometry">
            <mxPoint x="380" y="1130" as="sourcePoint" />
            <mxPoint x="130" y="900" as="targetPoint" />
          </mxGeometry>
        </mxCell>
        <mxCell id="MHYFWgI7yLFC2azn4eVU-30" value="" style="endArrow=classic;html=1;rounded=0;" edge="1" parent="1">
          <mxGeometry width="50" height="50" relative="1" as="geometry">
            <mxPoint x="130" y="900" as="sourcePoint" />
            <mxPoint x="410" y="900" as="targetPoint" />
          </mxGeometry>
        </mxCell>
        <mxCell id="MHYFWgI7yLFC2azn4eVU-32" value="A와 B가 상의한 내용을 합의했는가?" style="rhombus;whiteSpace=wrap;html=1;" vertex="1" parent="1">
          <mxGeometry x="274" y="1160" width="280" height="190" as="geometry" />
        </mxCell>
        <mxCell id="MHYFWgI7yLFC2azn4eVU-33" value="" style="endArrow=classic;html=1;rounded=0;exitX=0.5;exitY=1;exitDx=0;exitDy=0;" edge="1" parent="1" source="MHYFWgI7yLFC2azn4eVU-32">
          <mxGeometry width="50" height="50" relative="1" as="geometry">
            <mxPoint x="380" y="1230" as="sourcePoint" />
            <mxPoint x="414" y="1440" as="targetPoint" />
          </mxGeometry>
        </mxCell>
        <mxCell id="MHYFWgI7yLFC2azn4eVU-34" value="" style="endArrow=classic;html=1;rounded=0;entryX=1.01;entryY=0.417;entryDx=0;entryDy=0;entryPerimeter=0;" edge="1" parent="1" target="MHYFWgI7yLFC2azn4eVU-26">
          <mxGeometry width="50" height="50" relative="1" as="geometry">
            <mxPoint x="410" y="1390" as="sourcePoint" />
            <mxPoint x="290" y="1390" as="targetPoint" />
          </mxGeometry>
        </mxCell>
        <mxCell id="MHYFWgI7yLFC2azn4eVU-36" value="A가 합의된 사항을 B에게 시킨다" style="ellipse;whiteSpace=wrap;html=1;" vertex="1" parent="1">
          <mxGeometry x="286" y="1440" width="256" height="170" as="geometry" />
        </mxCell>
      </root>
    </mxGraphModel>
  </diagram>
</mxfile>
